<svg xmlns="http://www.w3.org/2000/svg" version="1.0" viewBox="0 0 1770.9 331">
    <path
        d="M130.3 5.5H0v319.7h49.4V200.5h80.9c60.2 0 102.3-40.1 102.3-97.5s-42-97.5-102.3-97.5zm55.5 97.5c0 34-24.2 55.4-60.2 55.4H49.4V49.5h76.2c34.8 0 60.2 19.7 60.2 53.5zm1165.7.7c0-58.8-42.6-98.2-106.1-98.2h-134.7v319.7h50.2V202h56.6l82.2 123.2h59.5l-87.8-127.5c41.1-6.7 80.1-37.3 80.1-94zm-51.7 0c0 32.2-24.4 54.7-59.3 54.7h-79.6V49.5h79.6c35.5 0 59.3 21.8 59.3 54.2zM576.4 49.5l19.3-44H347.6v319.6h247.8l-19.4-44H396.1v-97.3h150.2v-44H396.1V49.5zm249.3-44h-115v319.7h115c100.1 0 170-65.6 170-159.6-.1-94.3-70-160.1-170-160.1zm118.6 160c0 69.1-47.7 115.5-118.6 115.5h-65V49.6h65c70.9 0 118.6 46.6 118.6 115.9zM1616.8 0c-89.3 0-154.1 69.6-154.1 165.5S1527.5 331 1616.8 331s154.1-69.6 154.1-165.5S1706.2 0 1616.8 0zm106 165.5c0 71.5-43.6 121.5-105.9 121.5-63.3 0-105.9-48.8-105.9-121.5S1553.6 44 1616.9 44c63.3.1 105.9 48.9 105.9 121.5z"
    />
</svg>
